<mxfile host="Electron" agent="Mozilla/5.0 (Windows NT 10.0; Win64; x64) AppleWebKit/537.36 (KHTML, like Gecko) draw.io/24.7.17 Chrome/128.0.6613.36 Electron/32.0.1 Safari/537.36" version="24.7.17">
  <diagram name="Pagina-1" id="txrZ4lRXPyrpTr02BEt_">
    <mxGraphModel dx="676" dy="391" grid="1" gridSize="10" guides="1" tooltips="1" connect="1" arrows="1" fold="1" page="1" pageScale="1" pageWidth="827" pageHeight="1169" math="1" shadow="0">
      <root>
        <mxCell id="0" />
        <mxCell id="1" parent="0" />
        <mxCell id="ZWrK8Gvpjmo0tO1QfPSv-1" value="" style="pointerEvents=1;verticalLabelPosition=bottom;shadow=0;dashed=0;align=center;html=1;verticalAlign=top;shape=mxgraph.electrical.inductors.inductor_5;" vertex="1" parent="1">
          <mxGeometry x="310" y="356" width="40" height="14" as="geometry" />
        </mxCell>
        <mxCell id="ZWrK8Gvpjmo0tO1QfPSv-2" value="" style="pointerEvents=1;verticalLabelPosition=bottom;shadow=0;dashed=0;align=center;html=1;verticalAlign=top;shape=mxgraph.electrical.resistors.resistor_2;rotation=90;" vertex="1" parent="1">
          <mxGeometry x="260" y="400" width="40" height="10" as="geometry" />
        </mxCell>
        <mxCell id="ZWrK8Gvpjmo0tO1QfPSv-3" style="edgeStyle=orthogonalEdgeStyle;rounded=0;orthogonalLoop=1;jettySize=auto;html=1;entryX=0;entryY=0.645;entryDx=0;entryDy=0;entryPerimeter=0;endArrow=none;endFill=0;" edge="1" parent="1" source="ZWrK8Gvpjmo0tO1QfPSv-2" target="ZWrK8Gvpjmo0tO1QfPSv-1">
          <mxGeometry relative="1" as="geometry">
            <Array as="points">
              <mxPoint x="280" y="365" />
            </Array>
          </mxGeometry>
        </mxCell>
        <mxCell id="ZWrK8Gvpjmo0tO1QfPSv-4" value="" style="verticalLabelPosition=bottom;shadow=0;dashed=0;align=center;fillColor=strokeColor;html=1;verticalAlign=top;strokeWidth=1;shape=mxgraph.electrical.miscellaneous.monocell_battery;rotation=-180;" vertex="1" parent="1">
          <mxGeometry x="315" y="460" width="30" height="20" as="geometry" />
        </mxCell>
        <mxCell id="ZWrK8Gvpjmo0tO1QfPSv-5" style="edgeStyle=orthogonalEdgeStyle;rounded=0;orthogonalLoop=1;jettySize=auto;html=1;entryX=1;entryY=0.5;entryDx=0;entryDy=0;entryPerimeter=0;endArrow=none;endFill=0;" edge="1" parent="1" source="ZWrK8Gvpjmo0tO1QfPSv-9" target="ZWrK8Gvpjmo0tO1QfPSv-2">
          <mxGeometry relative="1" as="geometry">
            <Array as="points" />
          </mxGeometry>
        </mxCell>
        <mxCell id="ZWrK8Gvpjmo0tO1QfPSv-6" style="edgeStyle=orthogonalEdgeStyle;rounded=0;orthogonalLoop=1;jettySize=auto;html=1;entryX=0;entryY=0.5;entryDx=0;entryDy=0;entryPerimeter=0;exitX=1;exitY=0.645;exitDx=0;exitDy=0;exitPerimeter=0;endArrow=none;endFill=0;" edge="1" parent="1" source="ZWrK8Gvpjmo0tO1QfPSv-1" target="ZWrK8Gvpjmo0tO1QfPSv-4">
          <mxGeometry relative="1" as="geometry">
            <Array as="points">
              <mxPoint x="380" y="365" />
              <mxPoint x="380" y="470" />
            </Array>
          </mxGeometry>
        </mxCell>
        <mxCell id="ZWrK8Gvpjmo0tO1QfPSv-7" value="\(\Delta V\)" style="text;html=1;align=center;verticalAlign=middle;whiteSpace=wrap;rounded=0;" vertex="1" parent="1">
          <mxGeometry x="315" y="480" width="30" height="20" as="geometry" />
        </mxCell>
        <mxCell id="ZWrK8Gvpjmo0tO1QfPSv-8" value="" style="edgeStyle=orthogonalEdgeStyle;rounded=0;orthogonalLoop=1;jettySize=auto;html=1;entryDx=0;entryDy=0;entryPerimeter=0;endArrow=none;endFill=0;" edge="1" parent="1" source="ZWrK8Gvpjmo0tO1QfPSv-4" target="ZWrK8Gvpjmo0tO1QfPSv-9">
          <mxGeometry relative="1" as="geometry">
            <mxPoint x="315" y="450" as="sourcePoint" />
            <mxPoint x="280" y="425" as="targetPoint" />
            <Array as="points">
              <mxPoint x="280" y="470" />
            </Array>
          </mxGeometry>
        </mxCell>
        <mxCell id="ZWrK8Gvpjmo0tO1QfPSv-9" value="" style="shape=waypoint;sketch=0;fillStyle=solid;size=6;pointerEvents=1;points=[];fillColor=none;resizable=0;rotatable=0;perimeter=centerPerimeter;snapToPoint=1;" vertex="1" parent="1">
          <mxGeometry x="270" y="420" width="20" height="20" as="geometry" />
        </mxCell>
        <mxCell id="ZWrK8Gvpjmo0tO1QfPSv-10" style="edgeStyle=orthogonalEdgeStyle;rounded=0;orthogonalLoop=1;jettySize=auto;html=1;endArrow=none;endFill=0;curved=1;dashed=1;" edge="1" parent="1" source="ZWrK8Gvpjmo0tO1QfPSv-11" target="ZWrK8Gvpjmo0tO1QfPSv-9">
          <mxGeometry relative="1" as="geometry">
            <Array as="points">
              <mxPoint x="260" y="380" />
              <mxPoint x="260" y="430" />
            </Array>
          </mxGeometry>
        </mxCell>
        <mxCell id="ZWrK8Gvpjmo0tO1QfPSv-11" value="" style="shape=waypoint;sketch=0;fillStyle=solid;size=6;pointerEvents=1;points=[];fillColor=none;resizable=0;rotatable=0;perimeter=centerPerimeter;snapToPoint=1;" vertex="1" parent="1">
          <mxGeometry x="270" y="370" width="20" height="20" as="geometry" />
        </mxCell>
        <mxCell id="ZWrK8Gvpjmo0tO1QfPSv-12" value="" style="shape=waypoint;sketch=0;fillStyle=solid;size=6;pointerEvents=1;points=[];fillColor=none;resizable=0;rotatable=0;perimeter=centerPerimeter;snapToPoint=1;" vertex="1" parent="1">
          <mxGeometry x="340" y="356" width="20" height="20" as="geometry" />
        </mxCell>
        <mxCell id="ZWrK8Gvpjmo0tO1QfPSv-13" style="edgeStyle=orthogonalEdgeStyle;rounded=0;orthogonalLoop=1;jettySize=auto;html=1;endArrow=none;endFill=0;curved=1;dashed=1;" edge="1" parent="1" source="ZWrK8Gvpjmo0tO1QfPSv-14" target="ZWrK8Gvpjmo0tO1QfPSv-12">
          <mxGeometry relative="1" as="geometry">
            <Array as="points">
              <mxPoint x="310" y="340" />
              <mxPoint x="350" y="340" />
            </Array>
          </mxGeometry>
        </mxCell>
        <mxCell id="ZWrK8Gvpjmo0tO1QfPSv-14" value="" style="shape=waypoint;sketch=0;fillStyle=solid;size=6;pointerEvents=1;points=[];fillColor=none;resizable=0;rotatable=0;perimeter=centerPerimeter;snapToPoint=1;" vertex="1" parent="1">
          <mxGeometry x="300" y="356" width="20" height="20" as="geometry" />
        </mxCell>
        <mxCell id="ZWrK8Gvpjmo0tO1QfPSv-15" value="\(RI\)" style="text;html=1;align=center;verticalAlign=middle;whiteSpace=wrap;rounded=0;" vertex="1" parent="1">
          <mxGeometry x="230" y="395" width="30" height="20" as="geometry" />
        </mxCell>
        <mxCell id="ZWrK8Gvpjmo0tO1QfPSv-16" value="\(L\frac{dI}{dt}\)" style="text;html=1;align=center;verticalAlign=middle;whiteSpace=wrap;rounded=0;" vertex="1" parent="1">
          <mxGeometry x="315" y="310" width="30" height="20" as="geometry" />
        </mxCell>
        <mxCell id="ZWrK8Gvpjmo0tO1QfPSv-20" value="" style="endArrow=none;html=1;rounded=0;" edge="1" parent="1">
          <mxGeometry width="50" height="50" relative="1" as="geometry">
            <mxPoint x="280" y="450" as="sourcePoint" />
            <mxPoint x="320" y="450" as="targetPoint" />
          </mxGeometry>
        </mxCell>
        <mxCell id="ZWrK8Gvpjmo0tO1QfPSv-21" value="" style="endArrow=none;html=1;rounded=0;" edge="1" parent="1" source="ZWrK8Gvpjmo0tO1QfPSv-22">
          <mxGeometry width="50" height="50" relative="1" as="geometry">
            <mxPoint x="340" y="450" as="sourcePoint" />
            <mxPoint x="380" y="450" as="targetPoint" />
          </mxGeometry>
        </mxCell>
        <mxCell id="ZWrK8Gvpjmo0tO1QfPSv-23" value="" style="endArrow=none;html=1;rounded=0;" edge="1" parent="1" target="ZWrK8Gvpjmo0tO1QfPSv-22">
          <mxGeometry width="50" height="50" relative="1" as="geometry">
            <mxPoint x="340" y="450" as="sourcePoint" />
            <mxPoint x="380" y="450" as="targetPoint" />
          </mxGeometry>
        </mxCell>
        <mxCell id="ZWrK8Gvpjmo0tO1QfPSv-22" value="" style="shape=waypoint;sketch=0;fillStyle=solid;size=6;pointerEvents=1;points=[];fillColor=none;resizable=0;rotatable=0;perimeter=centerPerimeter;snapToPoint=1;" vertex="1" parent="1">
          <mxGeometry x="330" y="440" width="20" height="20" as="geometry" />
        </mxCell>
        <mxCell id="ZWrK8Gvpjmo0tO1QfPSv-24" value="" style="endArrow=none;html=1;rounded=0;" edge="1" parent="1">
          <mxGeometry width="50" height="50" relative="1" as="geometry">
            <mxPoint x="340" y="450" as="sourcePoint" />
            <mxPoint x="320" y="440" as="targetPoint" />
          </mxGeometry>
        </mxCell>
        <mxCell id="ZWrK8Gvpjmo0tO1QfPSv-26" value="situazione a regime&amp;nbsp;&lt;div&gt;permanente in \(t&amp;lt;t_0\)&lt;/div&gt;" style="text;html=1;align=center;verticalAlign=middle;whiteSpace=wrap;rounded=0;" vertex="1" parent="1">
          <mxGeometry x="260" y="500" width="140" height="30" as="geometry" />
        </mxCell>
        <mxCell id="ZWrK8Gvpjmo0tO1QfPSv-27" value="\(I(t)=\frac{\Delta V}{R}\)" style="text;html=1;align=center;verticalAlign=middle;whiteSpace=wrap;rounded=0;" vertex="1" parent="1">
          <mxGeometry x="292.5" y="540" width="75" height="20" as="geometry" />
        </mxCell>
        <mxCell id="ZWrK8Gvpjmo0tO1QfPSv-28" value="" style="pointerEvents=1;verticalLabelPosition=bottom;shadow=0;dashed=0;align=center;html=1;verticalAlign=top;shape=mxgraph.electrical.inductors.inductor_5;" vertex="1" parent="1">
          <mxGeometry x="530" y="356" width="40" height="14" as="geometry" />
        </mxCell>
        <mxCell id="ZWrK8Gvpjmo0tO1QfPSv-29" value="" style="pointerEvents=1;verticalLabelPosition=bottom;shadow=0;dashed=0;align=center;html=1;verticalAlign=top;shape=mxgraph.electrical.resistors.resistor_2;rotation=90;" vertex="1" parent="1">
          <mxGeometry x="480" y="400" width="40" height="10" as="geometry" />
        </mxCell>
        <mxCell id="ZWrK8Gvpjmo0tO1QfPSv-30" style="edgeStyle=orthogonalEdgeStyle;rounded=0;orthogonalLoop=1;jettySize=auto;html=1;entryX=0;entryY=0.645;entryDx=0;entryDy=0;entryPerimeter=0;endArrow=none;endFill=0;" edge="1" parent="1" source="ZWrK8Gvpjmo0tO1QfPSv-29" target="ZWrK8Gvpjmo0tO1QfPSv-28">
          <mxGeometry relative="1" as="geometry">
            <Array as="points">
              <mxPoint x="500" y="365" />
            </Array>
          </mxGeometry>
        </mxCell>
        <mxCell id="ZWrK8Gvpjmo0tO1QfPSv-31" value="" style="verticalLabelPosition=bottom;shadow=0;dashed=0;align=center;fillColor=#f5f5f5;html=1;verticalAlign=top;strokeWidth=1;shape=mxgraph.electrical.miscellaneous.monocell_battery;rotation=-180;fontColor=#333333;strokeColor=#828282;" vertex="1" parent="1">
          <mxGeometry x="535" y="460" width="30" height="20" as="geometry" />
        </mxCell>
        <mxCell id="ZWrK8Gvpjmo0tO1QfPSv-32" style="edgeStyle=orthogonalEdgeStyle;rounded=0;orthogonalLoop=1;jettySize=auto;html=1;entryX=1;entryY=0.5;entryDx=0;entryDy=0;entryPerimeter=0;endArrow=none;endFill=0;" edge="1" parent="1" source="ZWrK8Gvpjmo0tO1QfPSv-36" target="ZWrK8Gvpjmo0tO1QfPSv-29">
          <mxGeometry relative="1" as="geometry">
            <Array as="points" />
          </mxGeometry>
        </mxCell>
        <mxCell id="ZWrK8Gvpjmo0tO1QfPSv-33" style="edgeStyle=orthogonalEdgeStyle;rounded=0;orthogonalLoop=1;jettySize=auto;html=1;entryX=0;entryY=0.5;entryDx=0;entryDy=0;entryPerimeter=0;exitX=1;exitY=0.645;exitDx=0;exitDy=0;exitPerimeter=0;endArrow=none;endFill=0;" edge="1" parent="1" source="ZWrK8Gvpjmo0tO1QfPSv-28" target="ZWrK8Gvpjmo0tO1QfPSv-31">
          <mxGeometry relative="1" as="geometry">
            <Array as="points">
              <mxPoint x="600" y="365" />
              <mxPoint x="600" y="470" />
            </Array>
          </mxGeometry>
        </mxCell>
        <mxCell id="ZWrK8Gvpjmo0tO1QfPSv-34" value="\(\Delta V\)" style="text;html=1;align=center;verticalAlign=middle;whiteSpace=wrap;rounded=0;fontColor=#A8A8A8;" vertex="1" parent="1">
          <mxGeometry x="535" y="480" width="30" height="20" as="geometry" />
        </mxCell>
        <mxCell id="ZWrK8Gvpjmo0tO1QfPSv-35" value="" style="edgeStyle=orthogonalEdgeStyle;rounded=0;orthogonalLoop=1;jettySize=auto;html=1;entryDx=0;entryDy=0;entryPerimeter=0;endArrow=none;endFill=0;" edge="1" parent="1" source="ZWrK8Gvpjmo0tO1QfPSv-31" target="ZWrK8Gvpjmo0tO1QfPSv-36">
          <mxGeometry relative="1" as="geometry">
            <mxPoint x="535" y="450" as="sourcePoint" />
            <mxPoint x="500" y="425" as="targetPoint" />
            <Array as="points">
              <mxPoint x="500" y="470" />
            </Array>
          </mxGeometry>
        </mxCell>
        <mxCell id="ZWrK8Gvpjmo0tO1QfPSv-36" value="" style="shape=waypoint;sketch=0;fillStyle=solid;size=6;pointerEvents=1;points=[];fillColor=none;resizable=0;rotatable=0;perimeter=centerPerimeter;snapToPoint=1;" vertex="1" parent="1">
          <mxGeometry x="490" y="420" width="20" height="20" as="geometry" />
        </mxCell>
        <mxCell id="ZWrK8Gvpjmo0tO1QfPSv-37" style="edgeStyle=orthogonalEdgeStyle;rounded=0;orthogonalLoop=1;jettySize=auto;html=1;endArrow=none;endFill=0;curved=1;dashed=1;" edge="1" parent="1" source="ZWrK8Gvpjmo0tO1QfPSv-38" target="ZWrK8Gvpjmo0tO1QfPSv-36">
          <mxGeometry relative="1" as="geometry">
            <Array as="points">
              <mxPoint x="480" y="380" />
              <mxPoint x="480" y="430" />
            </Array>
          </mxGeometry>
        </mxCell>
        <mxCell id="ZWrK8Gvpjmo0tO1QfPSv-38" value="" style="shape=waypoint;sketch=0;fillStyle=solid;size=6;pointerEvents=1;points=[];fillColor=none;resizable=0;rotatable=0;perimeter=centerPerimeter;snapToPoint=1;" vertex="1" parent="1">
          <mxGeometry x="490" y="370" width="20" height="20" as="geometry" />
        </mxCell>
        <mxCell id="ZWrK8Gvpjmo0tO1QfPSv-39" value="" style="shape=waypoint;sketch=0;fillStyle=solid;size=6;pointerEvents=1;points=[];fillColor=none;resizable=0;rotatable=0;perimeter=centerPerimeter;snapToPoint=1;" vertex="1" parent="1">
          <mxGeometry x="560" y="356" width="20" height="20" as="geometry" />
        </mxCell>
        <mxCell id="ZWrK8Gvpjmo0tO1QfPSv-40" style="edgeStyle=orthogonalEdgeStyle;rounded=0;orthogonalLoop=1;jettySize=auto;html=1;endArrow=none;endFill=0;curved=1;dashed=1;" edge="1" parent="1" source="ZWrK8Gvpjmo0tO1QfPSv-41" target="ZWrK8Gvpjmo0tO1QfPSv-39">
          <mxGeometry relative="1" as="geometry">
            <Array as="points">
              <mxPoint x="530" y="340" />
              <mxPoint x="570" y="340" />
            </Array>
          </mxGeometry>
        </mxCell>
        <mxCell id="ZWrK8Gvpjmo0tO1QfPSv-41" value="" style="shape=waypoint;sketch=0;fillStyle=solid;size=6;pointerEvents=1;points=[];fillColor=none;resizable=0;rotatable=0;perimeter=centerPerimeter;snapToPoint=1;" vertex="1" parent="1">
          <mxGeometry x="520" y="356" width="20" height="20" as="geometry" />
        </mxCell>
        <mxCell id="ZWrK8Gvpjmo0tO1QfPSv-42" value="\(RI\)" style="text;html=1;align=center;verticalAlign=middle;whiteSpace=wrap;rounded=0;" vertex="1" parent="1">
          <mxGeometry x="450" y="395" width="30" height="20" as="geometry" />
        </mxCell>
        <mxCell id="ZWrK8Gvpjmo0tO1QfPSv-43" value="\(L\frac{dI}{dt}\)" style="text;html=1;align=center;verticalAlign=middle;whiteSpace=wrap;rounded=0;" vertex="1" parent="1">
          <mxGeometry x="535" y="310" width="30" height="20" as="geometry" />
        </mxCell>
        <mxCell id="ZWrK8Gvpjmo0tO1QfPSv-44" value="" style="endArrow=none;html=1;rounded=0;" edge="1" parent="1" target="ZWrK8Gvpjmo0tO1QfPSv-47">
          <mxGeometry width="50" height="50" relative="1" as="geometry">
            <mxPoint x="500" y="450" as="sourcePoint" />
            <mxPoint x="540" y="450" as="targetPoint" />
          </mxGeometry>
        </mxCell>
        <mxCell id="ZWrK8Gvpjmo0tO1QfPSv-45" value="" style="endArrow=none;html=1;rounded=0;" edge="1" parent="1" source="ZWrK8Gvpjmo0tO1QfPSv-47">
          <mxGeometry width="50" height="50" relative="1" as="geometry">
            <mxPoint x="560" y="450" as="sourcePoint" />
            <mxPoint x="600" y="450" as="targetPoint" />
          </mxGeometry>
        </mxCell>
        <mxCell id="ZWrK8Gvpjmo0tO1QfPSv-46" value="" style="endArrow=none;html=1;rounded=0;" edge="1" parent="1" target="ZWrK8Gvpjmo0tO1QfPSv-47">
          <mxGeometry width="50" height="50" relative="1" as="geometry">
            <mxPoint x="560" y="450" as="sourcePoint" />
            <mxPoint x="600" y="450" as="targetPoint" />
          </mxGeometry>
        </mxCell>
        <mxCell id="ZWrK8Gvpjmo0tO1QfPSv-47" value="" style="shape=waypoint;sketch=0;fillStyle=solid;size=6;pointerEvents=1;points=[];fillColor=none;resizable=0;rotatable=0;perimeter=centerPerimeter;snapToPoint=1;" vertex="1" parent="1">
          <mxGeometry x="550" y="440" width="20" height="20" as="geometry" />
        </mxCell>
        <mxCell id="ZWrK8Gvpjmo0tO1QfPSv-49" value="all&#39;istante \(t=t_0\) si chiude lo switch" style="text;html=1;align=center;verticalAlign=middle;whiteSpace=wrap;rounded=0;" vertex="1" parent="1">
          <mxGeometry x="480" y="500" width="140" height="30" as="geometry" />
        </mxCell>
        <mxCell id="ZWrK8Gvpjmo0tO1QfPSv-50" value="\(IR-L\frac{dI}{dt}=0\)" style="text;html=1;align=center;verticalAlign=middle;whiteSpace=wrap;rounded=0;" vertex="1" parent="1">
          <mxGeometry x="480" y="540" width="150" height="20" as="geometry" />
        </mxCell>
        <mxCell id="ZWrK8Gvpjmo0tO1QfPSv-51" value="\(I(t)=?\)" style="text;html=1;align=center;verticalAlign=middle;whiteSpace=wrap;rounded=0;" vertex="1" parent="1">
          <mxGeometry x="480" y="565" width="150" height="20" as="geometry" />
        </mxCell>
      </root>
    </mxGraphModel>
  </diagram>
</mxfile>
